<svg xmlns="http://www.w3.org/2000/svg" viewBox="0 0 480 150" preserveAspectRatio="xMidYMid slice" role="img" aria-label="Consensus Workbook">
  <defs>
    <linearGradient id="cwbg" x1="0" y1="0" x2="1" y2="1">
      <stop offset="0" stop-color="#0c3d2e"/><stop offset="1" stop-color="#04231a"/>
    </linearGradient>
    <radialGradient id="cwglow" cx="30%" cy="35%" r="65%">
      <stop offset="0" stop-color="#34d399" stop-opacity=".16"/><stop offset="1" stop-color="#34d399" stop-opacity="0"/>
    </radialGradient>
  </defs>
  <rect width="480" height="150" fill="url(#cwbg)"/>
  <rect width="480" height="150" fill="url(#cwglow)"/>
  <!-- row 1 · within · approved -->
  <g>
    <rect x="26" y="30" width="84" height="9" rx="2.5" fill="#ffffff" opacity=".16"/>
    <rect x="138" y="29" width="150" height="5" rx="2.5" fill="#20342c"/>
    <rect x="138" y="29" width="98" height="5" rx="2.5" fill="#86efac" opacity=".9"/>
    <rect x="306" y="27" width="54" height="15" rx="4" fill="#4ade80" fill-opacity=".16" stroke="#4ade80" stroke-opacity=".45"/>
    <circle cx="432" cy="34" r="11" fill="#4ade80" fill-opacity=".2"/>
    <path d="M427 34 l3.5 3.5 l7 -8" stroke="#4ade80" stroke-width="2.2" fill="none" stroke-linecap="round" stroke-linejoin="round"/>
  </g>
  <!-- row 2 · review · pending (over-forecast, longer purple) -->
  <g>
    <rect x="26" y="66" width="96" height="9" rx="2.5" fill="#ffffff" opacity=".16"/>
    <rect x="138" y="65" width="150" height="5" rx="2.5" fill="#20342c"/>
    <rect x="138" y="65" width="132" height="5" rx="2.5" fill="#a855f7" opacity=".85"/>
    <rect x="306" y="63" width="54" height="15" rx="4" fill="#fbbf24" fill-opacity=".16" stroke="#fbbf24" stroke-opacity=".45"/>
    <circle cx="432" cy="70" r="11" fill="none" stroke="#5d6b64" stroke-width="1.6"/>
  </g>
  <!-- row 3 · within · approved -->
  <g>
    <rect x="26" y="102" width="76" height="9" rx="2.5" fill="#ffffff" opacity=".16"/>
    <rect x="138" y="101" width="150" height="5" rx="2.5" fill="#20342c"/>
    <rect x="138" y="101" width="108" height="5" rx="2.5" fill="#86efac" opacity=".9"/>
    <rect x="306" y="99" width="54" height="15" rx="4" fill="#4ade80" fill-opacity=".16" stroke="#4ade80" stroke-opacity=".45"/>
    <circle cx="432" cy="106" r="11" fill="#4ade80" fill-opacity=".2"/>
    <path d="M427 106 l3.5 3.5 l7 -8" stroke="#4ade80" stroke-width="2.2" fill="none" stroke-linecap="round" stroke-linejoin="round"/>
  </g>
</svg>
