<svg xmlns="http://www.w3.org/2000/svg" viewBox="0 0 480 150" preserveAspectRatio="xMidYMid slice" role="img" aria-label="Forecast Viewer">
  <defs>
    <linearGradient id="fvbg" x1="0" y1="0" x2="1" y2="1">
      <stop offset="0" stop-color="#10233f"/><stop offset="1" stop-color="#071426"/>
    </linearGradient>
    <linearGradient id="fvband" x1="0" y1="0" x2="1" y2="0">
      <stop offset="0" stop-color="#c084fc" stop-opacity="0"/><stop offset="1" stop-color="#c084fc" stop-opacity=".24"/>
    </linearGradient>
    <radialGradient id="fvglow" cx="60%" cy="30%" r="60%">
      <stop offset="0" stop-color="#3b82f6" stop-opacity=".18"/><stop offset="1" stop-color="#3b82f6" stop-opacity="0"/>
    </radialGradient>
  </defs>
  <rect width="480" height="150" fill="url(#fvbg)"/>
  <rect width="480" height="150" fill="url(#fvglow)"/>
  <g stroke="#1f3557" stroke-width="1" opacity=".7">
    <line x1="0" y1="42" x2="480" y2="42"/><line x1="0" y1="78" x2="480" y2="78"/><line x1="0" y1="114" x2="480" y2="114"/>
  </g>
  <path d="M272 82 L332 68 L392 55 L452 45 L480 41 L480 100 L452 93 L392 84 L332 76 L272 84 Z" fill="url(#fvband)" stroke="#c084fc" stroke-opacity=".28" stroke-width=".6"/>
  <line x1="272" y1="22" x2="272" y2="130" stroke="#455066" stroke-width="1" stroke-dasharray="3,3"/>
  <polyline points="22,116 62,108 102,103 142,98 182,88 222,82 262,76 272,74" fill="none" stroke="#4ade80" stroke-width="2.6" stroke-linecap="round" stroke-linejoin="round"/>
  <polyline points="272,74 332,72 392,69 452,67 480,66" fill="none" stroke="#60a5fa" stroke-width="2" stroke-dasharray="6,4" stroke-linecap="round"/>
  <polyline points="272,74 332,63 392,54 452,47 480,44" fill="none" stroke="#c084fc" stroke-width="2.6" stroke-linecap="round" stroke-linejoin="round"/>
  <circle cx="272" cy="74" r="4" fill="#c084fc"/>
  <circle cx="480" cy="44" r="3.5" fill="#c084fc"/>
</svg>
